<!-- Generated by IcoMoon.io -->
<svg version="1.1" xmlns="http://www.w3.org/2000/svg" width="32" height="32" viewBox="0 0 32 32">
<title>block-help-circle</title>
<path d="M8.655 2.764c-10.509 5.491-10.509 20.982 0 26.473 7.855 4.109 16.691 1.564 20.582-5.891 7.2-13.745-6.836-27.782-20.582-20.582zM11.782 6c0.327 2.291-3.6 6.182-5.782 5.782-2.327-0.436-2.036-1.891 0.945-4.836 2.945-2.982 4.509-3.273 4.836-0.945zM25.055 6.945c2.982 2.945 3.273 4.509 0.945 4.836-2.291 0.327-6.182-3.6-5.782-5.782 0.436-2.327 1.891-2.036 4.836 0.945zM20.691 11.673c2.073 2.036 1.964 6.727-0.182 8.836-3.382 3.418-9.673 1.564-10.691-3.091-1.345-6.182 6.4-10.255 10.873-5.745zM11.782 26c-0.436 2.327-1.891 2.036-4.836-0.945-2.982-2.945-3.273-4.509-0.945-4.836 2.291-0.327 6.182 3.6 5.782 5.782zM27.636 21.527c0 1.273-4.836 6.109-6.145 6.109-1.964 0-1.564-3.2 0.691-5.491s5.455-2.655 5.455-0.618z"></path>
</svg>
