<!-- Generated by IcoMoon.io -->
<svg version="1.1" xmlns="http://www.w3.org/2000/svg" width="32" height="32" viewBox="0 0 32 32">
<title>brawser</title>
<path d="M11.307 1.173c-6.72 1.92-11.733 9.6-10.773 16.64 0.533 4.587 1.92 7.040 5.973 10.347 2.667 2.347 4.373 2.773 9.493 2.773 5.547 0 6.827-0.427 10.133-3.307 4.8-4.267 6.613-10.133 4.907-15.787-1.28-4.373-7.467-10.667-10.56-10.88-0.96 0-2.773-0.213-3.947-0.427-1.173-0.107-3.52 0.107-5.227 0.64zM10.453 5.227c-0.96 1.28-2.027 1.813-2.88 1.28-1.067-0.64-0.747-1.28 1.067-2.56 2.987-2.133 3.84-1.6 1.813 1.28zM14.507 8.32c-0.427 0.32-1.173 0.107-1.813-0.533-0.853-0.853-0.747-1.92 0.32-3.627l1.387-2.56 0.32 2.987c0.213 1.707 0.107 3.307-0.213 3.733zM19.947 6.827c-0.96 2.773-2.88 1.6-2.88-1.707 0.107-3.307 0.107-3.413 1.6-1.387 0.96 1.067 1.493 2.56 1.28 3.093zM24.32 4.587c1.067 0.853 1.067 1.28 0.107 1.92-0.853 0.427-1.92 0.107-2.773-0.96-2.667-3.52-1.28-4.053 2.667-0.96zM6.827 8.107c1.067 0.427 1.707 1.92 1.707 3.733 0 2.773-0.427 3.093-3.2 3.093-3.52 0-3.84-0.747-1.92-4.8 1.387-2.987 1.173-2.88 3.413-2.027zM28.587 10.133c1.92 4.053 1.6 4.8-1.92 4.8-2.773 0-3.2-0.32-3.2-3.093s0.96-3.947 3.307-4.267c0.32-0.107 1.173 1.067 1.813 2.56zM14.933 12.267c0 2.133-0.533 2.667-2.56 2.667s-2.347-0.427-1.92-2.667c0.32-1.707 1.173-2.667 2.453-2.667 1.493 0 2.027 0.747 2.027 2.667zM21.547 12.267c0.427 2.24 0.107 2.667-1.92 2.667s-2.56-0.533-2.56-2.667c0-1.92 0.533-2.667 2.027-2.667 1.28 0 2.133 0.96 2.453 2.667zM8.533 20.16c0 1.92-0.64 3.307-1.707 3.733-2.027 0.747-1.813 0.853-3.52-2.24-1.813-3.627-1.387-4.587 2.027-4.587 2.773 0 3.2 0.32 3.2 3.093zM14.933 19.733c0 1.92-0.533 2.667-2.027 2.667-1.28 0-2.133-0.96-2.453-2.667-0.427-2.24-0.107-2.667 1.92-2.667s2.56 0.533 2.56 2.667zM21.547 19.733c-0.32 1.707-1.173 2.667-2.453 2.667-1.493 0-2.027-0.747-2.027-2.667 0-2.133 0.533-2.667 2.56-2.667s2.347 0.427 1.92 2.667zM29.867 18.24c0 0.853-1.813 4.907-2.667 6.080-0.107 0.107-1.067 0-2.027-0.427-1.067-0.427-1.707-1.813-1.707-3.733 0-2.773 0.427-3.093 3.2-3.093 1.813 0 3.2 0.533 3.2 1.173zM14.933 26.667c0 1.707-0.213 3.2-0.533 3.2-0.96 0-2.773-4.373-2.133-5.333 1.28-2.133 2.667-0.96 2.667 2.133zM19.947 25.173c0.213 0.533-0.32 2.027-1.28 3.093-1.493 2.027-1.493 1.92-1.6-1.387 0-3.307 1.92-4.48 2.88-1.707zM11.52 29.333c-0.213 0.32-1.6-0.32-2.88-1.28-1.813-1.28-2.133-1.92-1.067-2.56 1.28-0.747 5.013 2.88 3.947 3.84zM23.467 27.947c-2.88 2.347-3.84 1.92-2.027-1.067 0.747-1.28 2.027-1.92 2.88-1.493 1.28 0.427 1.067 0.96-0.853 2.56z"></path>
</svg>
