<!-- Generated by IcoMoon.io -->
<svg version="1.1" xmlns="http://www.w3.org/2000/svg" width="27" height="32" viewBox="0 0 27 32">
<title>creative</title>
<path d="M8 0.571c0 0.314 0.257 0.571 0.571 0.571 0.343 0 0.571 1.829 0.571 4.314v4.286l-4.571 7.829c-7.743 13.229-6.971 14.429 9.143 14.429 16.6 0 17.171-1.114 8.229-16.086-3.629-6-5.429-14.771-3.086-14.771 0.314 0 0.571-0.257 0.571-0.571s-0.514-0.571-1.143-0.571c-1.057 0-1.143 0.371-1.143 5.457v5.429l4.571 7.543c7.2 11.857 6.829 12.429-8 12.429-14.514 0-15.029-0.629-8.829-10.914 3.6-6 3.829-6.229 5.714-6.229 1.086 0 1.971-0.257 1.971-0.571s-0.657-0.571-1.486-0.571c-1.114 0-1.4-0.229-1.143-0.914 0.2-0.486 0.343-1 0.343-1.143 0-0.114 0.771-0.229 1.714-0.229s1.714-0.257 1.714-0.571c0-0.314-0.771-0.571-1.714-0.571-1.343 0-1.714-0.257-1.714-1.143 0-0.771 0.371-1.143 1.143-1.143 0.629 0 1.143-0.257 1.143-0.571s-0.514-0.571-1.143-0.571c-0.771 0-1.143-0.371-1.143-1.143 0-0.886 0.371-1.143 1.714-1.143 0.943 0 1.714-0.257 1.714-0.571s-0.771-0.571-1.714-0.571c-1.343 0-1.714-0.257-1.714-1.143 0-0.771-0.371-1.143-1.143-1.143-0.629 0-1.143 0.257-1.143 0.571z"></path>
<path d="M5.429 20.429c-5.257 8.971-5 9.286 7.971 9.286 13.4 0 13.914-0.514 8.857-8.914l-2.914-4.8h-11.314l-2.6 4.429zM21.343 22.143c3.829 6.457 3.886 6.429-7.629 6.429-12.086 0-11.886 0.286-5.886-9.314l1.371-2.171 9.314 0.343 2.829 4.714z"></path>
</svg>
