<!-- Generated by IcoMoon.io -->
<svg version="1.1" xmlns="http://www.w3.org/2000/svg" width="34" height="32" viewBox="0 0 34 32">
<title>free</title>
<path d="M15.422 1.244c-1.511 0.711-3.022 1.689-3.378 2.222-0.311 0.533-1.333 0.978-2.267 0.978-3.822 0-10.178 8.222-9.244 12 0.978 3.956 13.689 7.689 13.689 4 0-0.489-2.178-0.889-4.844-0.889-4.844 0-7.6-1.822-7.6-5.022 0-2.044 6.889-8.578 8.444-8 0.933 0.356 2.178-0.267 3.467-1.822 3.689-4.311 12.089-1.689 12.089 3.778 0 1.378 0.667 2.178 2.178 2.533 6.889 1.733 4.044 8.533-3.511 8.533-2.8 0-4.889 0.4-4.889 0.933 0 0.578 2.089 0.844 5.467 0.667 8.756-0.444 11.956-7.378 5.156-11.2-1.422-0.844-2.622-2-2.622-2.622 0-4.267-7.6-8.089-12.133-6.089z"></path>
<path d="M16 19.244c0 8.533 0 8.578-1.778 6.978-3.022-2.756-3.2-0.578-0.178 2.444l2.844 2.844 2.844-2.844c3.022-3.022 2.844-5.2-0.178-2.444-1.778 1.6-1.778 1.556-1.778-6.978 0-5.111-0.356-8.578-0.889-8.578s-0.889 3.467-0.889 8.578z"></path>
</svg>
