<!-- Generated by IcoMoon.io -->
<svg version="1.1" xmlns="http://www.w3.org/2000/svg" width="32" height="32" viewBox="0 0 32 32">
<title>ionicons</title>
<path d="M10.308 0.831c-14.123 5.292-13.415 26.708 1.015 30.615 13.6 3.692 25.569-10.615 19.108-22.862-0.615-1.169-1.046-2.738-0.985-3.477 0.185-1.354-1.662-2.831-3.138-2.554-0.431 0.092-1.723-0.369-2.923-0.985-2.8-1.508-9.938-1.908-13.077-0.738zM21.846 2.738c1.385 0.585 2.154 1.292 2.154 2.062 0 1.385 1.662 2.985 3.385 3.292 2.123 0.369 3.754 6.554 2.8 10.738-2.708 12.185-18.185 15.754-25.662 5.908-9.015-11.785 3.538-27.754 17.323-22z"></path>
<path d="M12.154 9.569c-3.262 1.785-4.492 6.523-2.615 10.154 2.492 4.8 10.431 4.8 12.923 0 3.508-6.8-3.6-13.785-10.308-10.154z"></path>
</svg>
