<!-- Generated by IcoMoon.io -->
<svg version="1.1" xmlns="http://www.w3.org/2000/svg" width="32" height="32" viewBox="0 0 32 32">
<title>perfect</title>
<path d="M9.5 1.467c-0.333 2.2-0.167 2.7 1 2.7 1 0 1 0 1.1-2.1l0.1-2.067h-1c-0.933 0-1 0.1-1.2 1.467z"></path>
<path d="M2.667 3.5c-0.6 0.733 1.9 3.333 2.933 3.033 1-0.333 0.933-1.233-0.167-2.5-0.967-1.1-2.1-1.333-2.767-0.533z"></path>
<path d="M15.367 4.033c-1.167 1.133-1.267 1.7-0.533 2.3 0.4 0.333 0.7 0.333 1.333 0.067 0.967-0.467 2.2-2.3 1.933-2.933-0.3-0.8-1.667-0.5-2.733 0.567z"></path>
<path d="M8.767 8.667c-1 1.133-1.467 2.667-0.833 2.667 0.3 0 0.733 0.433 12.033 11.8 4.467 4.5 8.4 8.2 8.7 8.2s0.9-0.433 1.333-1c0.467-0.533 1.1-0.967 1.433-1 0.533 0 0.867-1 0.3-1-0.167 0-5-4.733-10.767-10.5s-10.6-10.467-10.8-10.467c-0.167 0-0.833 0.6-1.4 1.3zM20.867 20c6.667 6.7 8.6 9 7.567 9-0.133 0-3.767-3.5-8-7.733-6.767-6.767-8.6-8.933-7.5-8.933 0.133 0 3.7 3.467 7.933 7.667z"></path>
<path d="M0.9 9.267c-0.733 0.1-0.9 0.267-0.9 1.067 0 0.833 0.167 1 1.133 1.167 1.733 0.333 2.533-0.033 2.533-1.167 0-0.767-0.167-0.933-0.9-1.033-0.533-0.067-1.333-0.1-1.867-0.033z"></path>
<path d="M17.733 9.4c-1.333 1.333 0.933 2.9 3.067 2.067 0.733-0.3 0.667-1.7-0.1-2.133-0.867-0.467-2.467-0.433-2.967 0.067z"></path>
<path d="M3.733 15.7c-1.2 1.133-1.367 1.433-1.067 1.967 0.6 1.1 1.833 0.833 3-0.667 0.6-0.767 1.033-1.4 0.967-1.433s-0.433-0.333-0.833-0.633c-0.667-0.567-0.733-0.533-2.067 0.767z"></path>
<path d="M9.533 17.533c-0.267 0.667-0.267 2.6 0 3.267 0.233 0.633 1.167 0.7 1.733 0.133 0.233-0.233 0.4-1.033 0.4-1.833 0-1.067-0.167-1.5-0.633-1.767-0.9-0.467-1.267-0.433-1.5 0.2z"></path>
</svg>
