<!-- Generated by IcoMoon.io -->
<svg version="1.1" xmlns="http://www.w3.org/2000/svg" width="37" height="32" viewBox="0 0 37 32">
<title>sketch</title>
<path d="M6 0.667c0 0.433 4.667 0.667 12.667 0.667s12.667-0.233 12.667-0.667c0-0.433-4.667-0.667-12.667-0.667s-12.667 0.233-12.667 0.667z"></path>
<path d="M3.333 3.333c0 0.433 5.567 0.667 15.333 0.667s15.333-0.233 15.333-0.667c0-0.433-5.567-0.667-15.333-0.667s-15.333 0.233-15.333 0.667z"></path>
<path d="M0 18.667v13.333h37.333v-26.667h-37.333v13.333zM36 18.667v12h-34.667v-24h34.667v12z"></path>
</svg>
